# MagicaVoxel @ Ephtracy

# group
o 

# material
mtllib BLUE SPINNER.mtl
usemtl palette

# normals
vn -1 0 0
vn 1 0 0
vn 0 0 1
vn 0 0 -1
vn 0 -1 0
vn 0 1 0

# texcoords
vt 0.0371094 0.5
vt 0.0410156 0.5
vt 0.111328 0.5
vt 0.974609 0.5

# verts
v -0.3 0 0.2
v -0.3 0 -0.2
v -0.3 0.4 0.3
v -0.3 0.4 0.2
v -0.3 0.4 -0.2
v -0.3 0.4 -0.3
v -0.3 0.6 0.3
v -0.3 0.6 0.2
v -0.3 0.6 -0.2
v -0.3 0.6 -0.3
v -0.3 0.8 0.2
v -0.3 0.8 -0.2
v -0.3 0.9 0.2
v -0.3 0.9 -0.2
v -0.2 0 0.3
v -0.2 0 0.2
v -0.2 0 -0.2
v -0.2 0 -0.3
v -0.2 0.4 0.3
v -0.2 0.4 0.2
v -0.2 0.4 -0.2
v -0.2 0.4 -0.3
v -0.2 0.6 0.3
v -0.2 0.6 0.2
v -0.2 0.6 -0.2
v -0.2 0.6 -0.3
v -0.2 0.8 0.3
v -0.2 0.8 0.2
v -0.2 0.8 -0.2
v -0.2 0.8 -0.3
v -0.2 0.9 0.3
v -0.2 0.9 0.2
v -0.2 0.9 0.1
v -0.2 0.9 -0.1
v -0.2 0.9 -0.2
v -0.2 0.9 -0.3
v -0.2 1 0.1
v -0.2 1 -0.1
v -0.1 0.4 0.4
v -0.1 0.4 0.3
v -0.1 0.4 -0.3
v -0.1 0.4 -0.4
v -0.1 0.6 0.4
v -0.1 0.6 0.3
v -0.1 0.6 -0.3
v -0.1 0.6 -0.4
v -0.1 0.9 0.2
v -0.1 0.9 0.1
v -0.1 0.9 -0.1
v -0.1 0.9 -0.2
v -0.1 1 0.2
v -0.1 1 0.1
v -0.1 1 -0.1
v -0.1 1 -0.2
v 0.1 0.4 0.4
v 0.1 0.4 0.3
v 0.1 0.4 -0.3
v 0.1 0.4 -0.4
v 0.1 0.6 0.4
v 0.1 0.6 0.3
v 0.1 0.6 -0.3
v 0.1 0.6 -0.4
v 0.1 0.9 0.2
v 0.1 0.9 0.1
v 0.1 0.9 -0.1
v 0.1 0.9 -0.2
v 0.1 1 0.2
v 0.1 1 0.1
v 0.1 1 -0.1
v 0.1 1 -0.2
v 0.2 0 0.3
v 0.2 0 0.2
v 0.2 0 -0.2
v 0.2 0 -0.3
v 0.2 0.4 0.3
v 0.2 0.4 0.2
v 0.2 0.4 -0.2
v 0.2 0.4 -0.3
v 0.2 0.6 0.3
v 0.2 0.6 0.2
v 0.2 0.6 -0.2
v 0.2 0.6 -0.3
v 0.2 0.8 0.3
v 0.2 0.8 0.2
v 0.2 0.8 -0.2
v 0.2 0.8 -0.3
v 0.2 0.9 0.3
v 0.2 0.9 0.2
v 0.2 0.9 0.1
v 0.2 0.9 -0.1
v 0.2 0.9 -0.2
v 0.2 0.9 -0.3
v 0.2 1 0.1
v 0.2 1 -0.1
v 0.3 0 0.2
v 0.3 0 -0.2
v 0.3 0.4 0.3
v 0.3 0.4 0.2
v 0.3 0.4 -0.2
v 0.3 0.4 -0.3
v 0.3 0.6 0.3
v 0.3 0.6 0.2
v 0.3 0.6 -0.2
v 0.3 0.6 -0.3
v 0.3 0.8 0.2
v 0.3 0.8 -0.2
v 0.3 0.9 0.2
v 0.3 0.9 -0.2
v -0.1 0.4 0.4
v -0.1 0.6 0.4
v 0.1 0.4 0.4
v 0.1 0.6 0.4
v -0.3 0.4 0.3
v -0.3 0.6 0.3
v -0.2 0 0.3
v -0.2 0.4 0.3
v -0.2 0.6 0.3
v -0.2 0.8 0.3
v -0.2 0.9 0.3
v -0.1 0.4 0.3
v -0.1 0.6 0.3
v 0.1 0.4 0.3
v 0.1 0.6 0.3
v 0.2 0 0.3
v 0.2 0.4 0.3
v 0.2 0.6 0.3
v 0.2 0.8 0.3
v 0.2 0.9 0.3
v 0.3 0.4 0.3
v 0.3 0.6 0.3
v -0.3 0 0.2
v -0.3 0.4 0.2
v -0.3 0.6 0.2
v -0.3 0.8 0.2
v -0.3 0.9 0.2
v -0.2 0 0.2
v -0.2 0.4 0.2
v -0.2 0.6 0.2
v -0.2 0.8 0.2
v -0.2 0.9 0.2
v -0.1 0.9 0.2
v -0.1 1 0.2
v 0.1 0.9 0.2
v 0.1 1 0.2
v 0.2 0 0.2
v 0.2 0.4 0.2
v 0.2 0.6 0.2
v 0.2 0.8 0.2
v 0.2 0.9 0.2
v 0.3 0 0.2
v 0.3 0.4 0.2
v 0.3 0.6 0.2
v 0.3 0.8 0.2
v 0.3 0.9 0.2
v -0.2 0.9 0.1
v -0.2 1 0.1
v -0.1 0.9 0.1
v -0.1 1 0.1
v 0.1 0.9 0.1
v 0.1 1 0.1
v 0.2 0.9 0.1
v 0.2 1 0.1
v -0.2 0.9 -0.1
v -0.2 1 -0.1
v -0.1 0.9 -0.1
v -0.1 1 -0.1
v 0.1 0.9 -0.1
v 0.1 1 -0.1
v 0.2 0.9 -0.1
v 0.2 1 -0.1
v -0.3 0 -0.2
v -0.3 0.4 -0.2
v -0.3 0.6 -0.2
v -0.3 0.8 -0.2
v -0.3 0.9 -0.2
v -0.2 0 -0.2
v -0.2 0.4 -0.2
v -0.2 0.6 -0.2
v -0.2 0.8 -0.2
v -0.2 0.9 -0.2
v -0.1 0.9 -0.2
v -0.1 1 -0.2
v 0.1 0.9 -0.2
v 0.1 1 -0.2
v 0.2 0 -0.2
v 0.2 0.4 -0.2
v 0.2 0.6 -0.2
v 0.2 0.8 -0.2
v 0.2 0.9 -0.2
v 0.3 0 -0.2
v 0.3 0.4 -0.2
v 0.3 0.6 -0.2
v 0.3 0.8 -0.2
v 0.3 0.9 -0.2
v -0.3 0.4 -0.3
v -0.3 0.6 -0.3
v -0.2 0 -0.3
v -0.2 0.4 -0.3
v -0.2 0.6 -0.3
v -0.2 0.8 -0.3
v -0.2 0.9 -0.3
v -0.1 0.4 -0.3
v -0.1 0.6 -0.3
v 0.1 0.4 -0.3
v 0.1 0.6 -0.3
v 0.2 0 -0.3
v 0.2 0.4 -0.3
v 0.2 0.6 -0.3
v 0.2 0.8 -0.3
v 0.2 0.9 -0.3
v 0.3 0.4 -0.3
v 0.3 0.6 -0.3
v -0.1 0.4 -0.4
v -0.1 0.6 -0.4
v 0.1 0.4 -0.4
v 0.1 0.6 -0.4
v -0.2 0 0.3
v 0.2 0 0.3
v -0.3 0 0.2
v -0.2 0 0.2
v 0.2 0 0.2
v 0.3 0 0.2
v -0.3 0 -0.2
v -0.2 0 -0.2
v 0.2 0 -0.2
v 0.3 0 -0.2
v -0.2 0 -0.3
v 0.2 0 -0.3
v -0.1 0.4 0.4
v 0.1 0.4 0.4
v -0.3 0.4 0.3
v -0.2 0.4 0.3
v -0.1 0.4 0.3
v 0.1 0.4 0.3
v 0.2 0.4 0.3
v 0.3 0.4 0.3
v -0.3 0.4 0.2
v -0.2 0.4 0.2
v 0.2 0.4 0.2
v 0.3 0.4 0.2
v -0.3 0.4 -0.2
v -0.2 0.4 -0.2
v 0.2 0.4 -0.2
v 0.3 0.4 -0.2
v -0.3 0.4 -0.3
v -0.2 0.4 -0.3
v -0.1 0.4 -0.3
v 0.1 0.4 -0.3
v 0.2 0.4 -0.3
v 0.3 0.4 -0.3
v -0.1 0.4 -0.4
v 0.1 0.4 -0.4
v -0.1 0.6 0.4
v 0.1 0.6 0.4
v -0.3 0.6 0.3
v -0.2 0.6 0.3
v -0.1 0.6 0.3
v 0.1 0.6 0.3
v 0.2 0.6 0.3
v 0.3 0.6 0.3
v -0.3 0.6 0.2
v -0.2 0.6 0.2
v 0.2 0.6 0.2
v 0.3 0.6 0.2
v -0.3 0.6 -0.2
v -0.2 0.6 -0.2
v 0.2 0.6 -0.2
v 0.3 0.6 -0.2
v -0.3 0.6 -0.3
v -0.2 0.6 -0.3
v -0.1 0.6 -0.3
v 0.1 0.6 -0.3
v 0.2 0.6 -0.3
v 0.3 0.6 -0.3
v -0.1 0.6 -0.4
v 0.1 0.6 -0.4
v -0.2 0.9 0.3
v 0.2 0.9 0.3
v -0.3 0.9 0.2
v -0.2 0.9 0.2
v -0.1 0.9 0.2
v 0.1 0.9 0.2
v 0.2 0.9 0.2
v 0.3 0.9 0.2
v -0.2 0.9 0.1
v -0.1 0.9 0.1
v 0.1 0.9 0.1
v 0.2 0.9 0.1
v -0.2 0.9 -0.1
v -0.1 0.9 -0.1
v 0.1 0.9 -0.1
v 0.2 0.9 -0.1
v -0.3 0.9 -0.2
v -0.2 0.9 -0.2
v -0.1 0.9 -0.2
v 0.1 0.9 -0.2
v 0.2 0.9 -0.2
v 0.3 0.9 -0.2
v -0.2 0.9 -0.3
v 0.2 0.9 -0.3
v -0.1 1 0.2
v 0.1 1 0.2
v -0.2 1 0.1
v -0.1 1 0.1
v 0.1 1 0.1
v 0.2 1 0.1
v -0.2 1 -0.1
v -0.1 1 -0.1
v 0.1 1 -0.1
v 0.2 1 -0.1
v -0.1 1 -0.2
v 0.1 1 -0.2

# faces
f 4/2/1 2/2/1 1/2/1
f 5/2/1 2/2/1 4/2/1
f 7/1/1 4/1/1 3/1/1
f 8/2/1 5/2/1 4/2/1
f 8/1/1 4/1/1 7/1/1
f 9/3/1 6/3/1 5/3/1
f 9/2/1 5/2/1 8/2/1
f 10/3/1 6/3/1 9/3/1
f 11/2/1 9/2/1 8/2/1
f 12/2/1 9/2/1 11/2/1
f 13/3/1 12/3/1 11/3/1
f 14/3/1 12/3/1 13/3/1
f 19/2/1 16/2/1 15/2/1
f 20/2/1 16/2/1 19/2/1
f 21/2/1 18/2/1 17/2/1
f 22/2/1 18/2/1 21/2/1
f 27/2/1 24/2/1 23/2/1
f 28/2/1 24/2/1 27/2/1
f 29/2/1 26/2/1 25/2/1
f 30/2/1 26/2/1 29/2/1
f 31/3/1 28/3/1 27/3/1
f 32/3/1 28/3/1 31/3/1
f 35/3/1 30/3/1 29/3/1
f 36/3/1 30/3/1 35/3/1
f 37/4/1 34/4/1 33/4/1
f 38/4/1 34/4/1 37/4/1
f 43/3/1 40/3/1 39/3/1
f 44/3/1 40/3/1 43/3/1
f 45/1/1 42/1/1 41/1/1
f 46/1/1 42/1/1 45/1/1
f 51/4/1 48/4/1 47/4/1
f 52/4/1 48/4/1 51/4/1
f 53/4/1 50/4/1 49/4/1
f 54/4/1 50/4/1 53/4/1
f 55/3/2 56/3/2 59/3/2
f 59/3/2 56/3/2 60/3/2
f 57/1/2 58/1/2 61/1/2
f 61/1/2 58/1/2 62/1/2
f 63/4/2 64/4/2 67/4/2
f 67/4/2 64/4/2 68/4/2
f 65/4/2 66/4/2 69/4/2
f 69/4/2 66/4/2 70/4/2
f 71/2/2 72/2/2 75/2/2
f 75/2/2 72/2/2 76/2/2
f 73/2/2 74/2/2 77/2/2
f 77/2/2 74/2/2 78/2/2
f 79/2/2 80/2/2 83/2/2
f 83/2/2 80/2/2 84/2/2
f 81/2/2 82/2/2 85/2/2
f 85/2/2 82/2/2 86/2/2
f 83/3/2 84/3/2 87/3/2
f 87/3/2 84/3/2 88/3/2
f 85/3/2 86/3/2 91/3/2
f 91/3/2 86/3/2 92/3/2
f 89/4/2 90/4/2 93/4/2
f 93/4/2 90/4/2 94/4/2
f 95/2/2 96/2/2 98/2/2
f 98/2/2 96/2/2 99/2/2
f 97/1/2 98/1/2 101/1/2
f 98/2/2 99/2/2 102/2/2
f 101/1/2 98/1/2 102/1/2
f 99/3/2 100/3/2 103/3/2
f 102/2/2 99/2/2 103/2/2
f 103/3/2 100/3/2 104/3/2
f 102/2/2 103/2/2 105/2/2
f 105/2/2 103/2/2 106/2/2
f 105/3/2 106/3/2 107/3/2
f 107/3/2 106/3/2 108/3/2
f 111/3/3 110/3/3 109/3/3
f 112/3/3 110/3/3 111/3/3
f 116/1/3 114/1/3 113/1/3
f 117/1/3 114/1/3 116/1/3
f 120/2/3 116/2/3 115/2/3
f 120/2/3 117/2/3 116/2/3
f 120/2/3 118/2/3 117/2/3
f 121/2/3 118/2/3 120/2/3
f 122/2/3 120/2/3 115/2/3
f 123/2/3 118/2/3 121/2/3
f 124/2/3 122/2/3 115/2/3
f 124/2/3 123/2/3 122/2/3
f 125/2/3 123/2/3 124/2/3
f 126/2/3 118/2/3 123/2/3
f 126/2/3 123/2/3 125/2/3
f 127/3/3 119/3/3 118/3/3
f 127/2/3 118/2/3 126/2/3
f 128/3/3 119/3/3 127/3/3
f 129/1/3 126/1/3 125/1/3
f 130/1/3 126/1/3 129/1/3
f 136/2/3 132/2/3 131/2/3
f 137/2/3 132/2/3 136/2/3
f 138/2/3 134/2/3 133/2/3
f 139/3/3 135/3/3 134/3/3
f 139/2/3 134/2/3 138/2/3
f 140/3/3 135/3/3 139/3/3
f 143/4/3 142/4/3 141/4/3
f 144/4/3 142/4/3 143/4/3
f 150/2/3 146/2/3 145/2/3
f 151/2/3 146/2/3 150/2/3
f 152/2/3 148/2/3 147/2/3
f 153/3/3 149/3/3 148/3/3
f 153/2/3 148/2/3 152/2/3
f 154/3/3 149/3/3 153/3/3
f 157/4/3 156/4/3 155/4/3
f 158/4/3 156/4/3 157/4/3
f 161/4/3 160/4/3 159/4/3
f 162/4/3 160/4/3 161/4/3
f 163/4/4 164/4/4 165/4/4
f 165/4/4 164/4/4 166/4/4
f 167/4/4 168/4/4 169/4/4
f 169/4/4 168/4/4 170/4/4
f 171/2/4 172/2/4 176/2/4
f 176/2/4 172/2/4 177/2/4
f 173/2/4 174/2/4 178/2/4
f 174/3/4 175/3/4 179/3/4
f 178/2/4 174/2/4 179/2/4
f 179/3/4 175/3/4 180/3/4
f 181/4/4 182/4/4 183/4/4
f 183/4/4 182/4/4 184/4/4
f 185/2/4 186/2/4 190/2/4
f 190/2/4 186/2/4 191/2/4
f 187/2/4 188/2/4 192/2/4
f 188/3/4 189/3/4 193/3/4
f 192/2/4 188/2/4 193/2/4
f 193/3/4 189/3/4 194/3/4
f 195/3/4 196/3/4 198/3/4
f 198/3/4 196/3/4 199/3/4
f 197/2/4 198/2/4 202/2/4
f 198/2/4 199/2/4 202/2/4
f 199/2/4 200/2/4 202/2/4
f 202/2/4 200/2/4 203/2/4
f 197/2/4 202/2/4 204/2/4
f 203/2/4 200/2/4 205/2/4
f 197/2/4 204/2/4 206/2/4
f 204/2/4 205/2/4 206/2/4
f 206/2/4 205/2/4 207/2/4
f 205/2/4 200/2/4 208/2/4
f 207/2/4 205/2/4 208/2/4
f 200/3/4 201/3/4 209/3/4
f 208/2/4 200/2/4 209/2/4
f 209/3/4 201/3/4 210/3/4
f 207/3/4 208/3/4 211/3/4
f 211/3/4 208/3/4 212/3/4
f 213/1/4 214/1/4 215/1/4
f 215/1/4 214/1/4 216/1/4
f 220/2/5 218/2/5 217/2/5
f 221/2/5 218/2/5 220/2/5
f 223/2/5 220/2/5 219/2/5
f 223/2/5 222/2/5 221/2/5
f 223/2/5 221/2/5 220/2/5
f 224/2/5 222/2/5 223/2/5
f 225/2/5 222/2/5 224/2/5
f 226/2/5 222/2/5 225/2/5
f 227/2/5 225/2/5 224/2/5
f 228/2/5 225/2/5 227/2/5
f 233/3/5 230/3/5 229/3/5
f 234/3/5 230/3/5 233/3/5
f 237/1/5 232/1/5 231/1/5
f 238/1/5 232/1/5 237/1/5
f 239/1/5 236/1/5 235/1/5
f 240/1/5 236/1/5 239/1/5
f 245/3/5 242/3/5 241/3/5
f 246/3/5 242/3/5 245/3/5
f 249/3/5 244/3/5 243/3/5
f 250/3/5 244/3/5 249/3/5
f 251/1/5 248/1/5 247/1/5
f 252/1/5 248/1/5 251/1/5
f 253/3/6 254/3/6 257/3/6
f 257/3/6 254/3/6 258/3/6
f 255/1/6 256/1/6 261/1/6
f 261/1/6 256/1/6 262/1/6
f 259/1/6 260/1/6 263/1/6
f 263/1/6 260/1/6 264/1/6
f 265/3/6 266/3/6 269/3/6
f 269/3/6 266/3/6 270/3/6
f 267/3/6 268/3/6 273/3/6
f 273/3/6 268/3/6 274/3/6
f 271/1/6 272/1/6 275/1/6
f 275/1/6 272/1/6 276/1/6
f 277/3/6 278/3/6 280/3/6
f 280/3/6 278/3/6 281/3/6
f 281/3/6 278/3/6 282/3/6
f 282/3/6 278/3/6 283/3/6
f 279/3/6 280/3/6 285/3/6
f 280/3/6 281/3/6 285/3/6
f 285/3/6 281/3/6 286/3/6
f 283/3/6 284/3/6 287/3/6
f 282/3/6 283/3/6 287/3/6
f 287/3/6 284/3/6 288/3/6
f 279/3/6 285/3/6 289/3/6
f 288/3/6 284/3/6 292/3/6
f 289/3/6 290/3/6 293/3/6
f 279/3/6 289/3/6 293/3/6
f 293/3/6 290/3/6 294/3/6
f 294/3/6 290/3/6 295/3/6
f 291/3/6 292/3/6 296/3/6
f 292/3/6 284/3/6 297/3/6
f 296/3/6 292/3/6 297/3/6
f 297/3/6 284/3/6 298/3/6
f 294/3/6 295/3/6 299/3/6
f 295/3/6 296/3/6 299/3/6
f 296/3/6 297/3/6 299/3/6
f 299/3/6 297/3/6 300/3/6
f 301/4/6 302/4/6 304/4/6
f 304/4/6 302/4/6 305/4/6
f 303/4/6 304/4/6 307/4/6
f 305/4/6 306/4/6 307/4/6
f 304/4/6 305/4/6 307/4/6
f 307/4/6 306/4/6 308/4/6
f 308/4/6 306/4/6 309/4/6
f 309/4/6 306/4/6 310/4/6
f 308/4/6 309/4/6 311/4/6
f 311/4/6 309/4/6 312/4/6
