# MagicaVoxel @ Ephtracy

# group
o 

# material
mtllib WORM HEAD.mtl
usemtl palette

# normals
vn -1 0 0
vn 1 0 0
vn 0 0 1
vn 0 0 -1
vn 0 -1 0
vn 0 1 0

# texcoords
vt 0.876953 0.5
vt 0.939453 0.5
vt 0.943359 0.5

# verts
v -1 0.1 0.1
v -1 0.1 -0.1
v -1 0.3 0.1
v -1 0.3 -0.1
v -0.9 0 0.2
v -0.9 0 -0.2
v -0.9 0.1 0.1
v -0.9 0.1 -0.1
v -0.9 0.3 0.1
v -0.9 0.3 -0.1
v -0.9 0.4 0.2
v -0.9 0.4 -0.2
v -0.8 0 0.5
v -0.8 0 0.2
v -0.8 0 -0.2
v -0.8 0 -0.5
v -0.8 0.4 0.5
v -0.8 0.4 0.2
v -0.8 0.4 -0.2
v -0.8 0.4 -0.5
v -0.7 0 0.6
v -0.7 0 0.5
v -0.7 0 -0.5
v -0.7 0 -0.6
v -0.7 0.4 0.6
v -0.7 0.4 0.5
v -0.7 0.4 -0.5
v -0.7 0.4 -0.6
v -0.6 0 0.7
v -0.6 0 0.6
v -0.6 0 -0.6
v -0.6 0 -0.7
v -0.6 0.4 0.7
v -0.6 0.4 0.6
v -0.6 0.4 0.3
v -0.6 0.4 0.1
v -0.6 0.4 -0.6
v -0.6 0.4 -0.7
v -0.6 0.5 0.3
v -0.6 0.5 0.1
v -0.5 0 0.8
v -0.5 0 0.7
v -0.5 0 -0.7
v -0.5 0 -0.8
v -0.5 0.4 0.8
v -0.5 0.4 0.7
v -0.5 0.4 0.4
v -0.5 0.4 0.3
v -0.5 0.4 0.1
v -0.5 0.4 0
v -0.5 0.4 -0.7
v -0.5 0.4 -0.8
v -0.5 0.5 0.4
v -0.5 0.5 0.3
v -0.5 0.5 0.1
v -0.5 0.5 0
v -0.4 0.1 0.9
v -0.4 0.1 0.8
v -0.4 0.3 0.9
v -0.4 0.3 0.8
v -0.4 0.4 0.5
v -0.4 0.4 0.4
v -0.4 0.4 0
v -0.4 0.4 -0.1
v -0.4 0.5 0.5
v -0.4 0.5 0.4
v -0.4 0.5 0
v -0.4 0.5 -0.1
v -0.3 0.1 1
v -0.3 0.1 0.9
v -0.3 0.3 1
v -0.3 0.3 0.9
v -0.2 0 -0.8
v -0.2 0 -0.9
v -0.2 0.4 0.6
v -0.2 0.4 0.5
v -0.2 0.4 -0.1
v -0.2 0.4 -0.2
v -0.2 0.4 -0.8
v -0.2 0.4 -0.9
v -0.2 0.5 0.6
v -0.2 0.5 0.5
v -0.2 0.5 -0.1
v -0.2 0.5 -0.2
v -0.1 0.1 -0.9
v -0.1 0.1 -1
v -0.1 0.3 -0.9
v -0.1 0.3 -1
v 0.2 0.1 1
v 0.2 0.1 0.8
v 0.2 0.3 1
v 0.2 0.3 0.8
v -0.2 0.1 1
v -0.2 0.1 0.8
v -0.2 0.3 1
v -0.2 0.3 0.8
v 0.1 0.1 -0.9
v 0.1 0.1 -1
v 0.1 0.3 -0.9
v 0.1 0.3 -1
v 0.2 0 -0.8
v 0.2 0 -0.9
v 0.2 0.4 0.6
v 0.2 0.4 0.5
v 0.2 0.4 -0.1
v 0.2 0.4 -0.2
v 0.2 0.4 -0.8
v 0.2 0.4 -0.9
v 0.2 0.5 0.6
v 0.2 0.5 0.5
v 0.2 0.5 -0.1
v 0.2 0.5 -0.2
v 0.3 0.1 1
v 0.3 0.1 0.9
v 0.3 0.3 1
v 0.3 0.3 0.9
v 0.4 0.1 0.9
v 0.4 0.1 0.8
v 0.4 0.3 0.9
v 0.4 0.3 0.8
v 0.4 0.4 0.5
v 0.4 0.4 0.4
v 0.4 0.4 0
v 0.4 0.4 -0.1
v 0.4 0.5 0.5
v 0.4 0.5 0.4
v 0.4 0.5 0
v 0.4 0.5 -0.1
v 0.5 0 0.8
v 0.5 0 0.7
v 0.5 0 -0.7
v 0.5 0 -0.8
v 0.5 0.4 0.8
v 0.5 0.4 0.7
v 0.5 0.4 0.4
v 0.5 0.4 0.3
v 0.5 0.4 0.1
v 0.5 0.4 0
v 0.5 0.4 -0.7
v 0.5 0.4 -0.8
v 0.5 0.5 0.4
v 0.5 0.5 0.3
v 0.5 0.5 0.1
v 0.5 0.5 0
v 0.6 0 0.7
v 0.6 0 0.6
v 0.6 0 -0.6
v 0.6 0 -0.7
v 0.6 0.4 0.7
v 0.6 0.4 0.6
v 0.6 0.4 0.3
v 0.6 0.4 0.1
v 0.6 0.4 -0.6
v 0.6 0.4 -0.7
v 0.6 0.5 0.3
v 0.6 0.5 0.1
v 0.7 0 0.6
v 0.7 0 0.5
v 0.7 0 -0.5
v 0.7 0 -0.6
v 0.7 0.4 0.6
v 0.7 0.4 0.5
v 0.7 0.4 -0.5
v 0.7 0.4 -0.6
v 0.8 0 0.5
v 0.8 0 0.2
v 0.8 0 -0.2
v 0.8 0 -0.5
v 0.8 0.4 0.5
v 0.8 0.4 0.2
v 0.8 0.4 -0.2
v 0.8 0.4 -0.5
v 0.9 0 0.2
v 0.9 0 -0.2
v 0.9 0.1 0.1
v 0.9 0.1 -0.1
v 0.9 0.3 0.1
v 0.9 0.3 -0.1
v 0.9 0.4 0.2
v 0.9 0.4 -0.2
v 1 0.1 0.1
v 1 0.1 -0.1
v 1 0.3 0.1
v 1 0.3 -0.1
v -0.3 0.1 1
v -0.3 0.3 1
v -0.2 0.1 1
v -0.2 0.3 1
v 0.2 0.1 1
v 0.2 0.3 1
v 0.3 0.1 1
v 0.3 0.3 1
v -0.4 0.1 0.9
v -0.4 0.3 0.9
v -0.3 0.1 0.9
v -0.3 0.3 0.9
v 0.3 0.1 0.9
v 0.3 0.3 0.9
v 0.4 0.1 0.9
v 0.4 0.3 0.9
v -0.5 0 0.8
v -0.5 0.4 0.8
v -0.4 0.1 0.8
v -0.4 0.3 0.8
v -0.2 0.1 0.8
v -0.2 0.3 0.8
v 0.2 0.1 0.8
v 0.2 0.3 0.8
v 0.4 0.1 0.8
v 0.4 0.3 0.8
v 0.5 0 0.8
v 0.5 0.4 0.8
v -0.6 0 0.7
v -0.6 0.4 0.7
v -0.5 0 0.7
v -0.5 0.4 0.7
v 0.5 0 0.7
v 0.5 0.4 0.7
v 0.6 0 0.7
v 0.6 0.4 0.7
v -0.7 0 0.6
v -0.7 0.4 0.6
v -0.6 0 0.6
v -0.6 0.4 0.6
v -0.2 0.4 0.6
v -0.2 0.5 0.6
v 0.2 0.4 0.6
v 0.2 0.5 0.6
v 0.6 0 0.6
v 0.6 0.4 0.6
v 0.7 0 0.6
v 0.7 0.4 0.6
v -0.8 0 0.5
v -0.8 0.4 0.5
v -0.7 0 0.5
v -0.7 0.4 0.5
v -0.4 0.4 0.5
v -0.4 0.5 0.5
v -0.2 0.4 0.5
v -0.2 0.5 0.5
v 0.2 0.4 0.5
v 0.2 0.5 0.5
v 0.4 0.4 0.5
v 0.4 0.5 0.5
v 0.7 0 0.5
v 0.7 0.4 0.5
v 0.8 0 0.5
v 0.8 0.4 0.5
v -0.5 0.4 0.4
v -0.5 0.5 0.4
v -0.4 0.4 0.4
v -0.4 0.5 0.4
v 0.4 0.4 0.4
v 0.4 0.5 0.4
v 0.5 0.4 0.4
v 0.5 0.5 0.4
v -0.6 0.4 0.3
v -0.6 0.5 0.3
v -0.5 0.4 0.3
v -0.5 0.5 0.3
v 0.5 0.4 0.3
v 0.5 0.5 0.3
v 0.6 0.4 0.3
v 0.6 0.5 0.3
v -0.9 0 0.2
v -0.9 0.4 0.2
v -0.8 0 0.2
v -0.8 0.4 0.2
v 0.8 0 0.2
v 0.8 0.4 0.2
v 0.9 0 0.2
v 0.9 0.4 0.2
v -1 0.1 0.1
v -1 0.3 0.1
v -0.9 0.1 0.1
v -0.9 0.3 0.1
v 0.9 0.1 0.1
v 0.9 0.3 0.1
v 1 0.1 0.1
v 1 0.3 0.1
v -0.6 0.4 0.1
v -0.6 0.5 0.1
v -0.5 0.4 0.1
v -0.5 0.5 0.1
v 0.5 0.4 0.1
v 0.5 0.5 0.1
v 0.6 0.4 0.1
v 0.6 0.5 0.1
v -0.5 0.4 0
v -0.5 0.5 0
v -0.4 0.4 0
v -0.4 0.5 0
v 0.4 0.4 0
v 0.4 0.5 0
v 0.5 0.4 0
v 0.5 0.5 0
v -1 0.1 -0.1
v -1 0.3 -0.1
v -0.9 0.1 -0.1
v -0.9 0.3 -0.1
v -0.4 0.4 -0.1
v -0.4 0.5 -0.1
v -0.2 0.4 -0.1
v -0.2 0.5 -0.1
v 0.2 0.4 -0.1
v 0.2 0.5 -0.1
v 0.4 0.4 -0.1
v 0.4 0.5 -0.1
v 0.9 0.1 -0.1
v 0.9 0.3 -0.1
v 1 0.1 -0.1
v 1 0.3 -0.1
v -0.9 0 -0.2
v -0.9 0.4 -0.2
v -0.8 0 -0.2
v -0.8 0.4 -0.2
v -0.2 0.4 -0.2
v -0.2 0.5 -0.2
v 0.2 0.4 -0.2
v 0.2 0.5 -0.2
v 0.8 0 -0.2
v 0.8 0.4 -0.2
v 0.9 0 -0.2
v 0.9 0.4 -0.2
v -0.8 0 -0.5
v -0.8 0.4 -0.5
v -0.7 0 -0.5
v -0.7 0.4 -0.5
v 0.7 0 -0.5
v 0.7 0.4 -0.5
v 0.8 0 -0.5
v 0.8 0.4 -0.5
v -0.7 0 -0.6
v -0.7 0.4 -0.6
v -0.6 0 -0.6
v -0.6 0.4 -0.6
v 0.6 0 -0.6
v 0.6 0.4 -0.6
v 0.7 0 -0.6
v 0.7 0.4 -0.6
v -0.6 0 -0.7
v -0.6 0.4 -0.7
v -0.5 0 -0.7
v -0.5 0.4 -0.7
v 0.5 0 -0.7
v 0.5 0.4 -0.7
v 0.6 0 -0.7
v 0.6 0.4 -0.7
v -0.5 0 -0.8
v -0.5 0.4 -0.8
v -0.2 0 -0.8
v -0.2 0.4 -0.8
v 0.2 0 -0.8
v 0.2 0.4 -0.8
v 0.5 0 -0.8
v 0.5 0.4 -0.8
v -0.2 0 -0.9
v -0.2 0.4 -0.9
v -0.1 0.1 -0.9
v -0.1 0.3 -0.9
v 0.1 0.1 -0.9
v 0.1 0.3 -0.9
v 0.2 0 -0.9
v 0.2 0.4 -0.9
v -0.1 0.1 -1
v -0.1 0.3 -1
v 0.1 0.1 -1
v 0.1 0.3 -1
v -0.5 0 0.8
v 0.5 0 0.8
v -0.6 0 0.7
v -0.5 0 0.7
v 0.5 0 0.7
v 0.6 0 0.7
v -0.7 0 0.6
v -0.6 0 0.6
v 0.6 0 0.6
v 0.7 0 0.6
v -0.8 0 0.5
v -0.7 0 0.5
v 0.7 0 0.5
v 0.8 0 0.5
v -0.9 0 0.2
v -0.8 0 0.2
v 0.8 0 0.2
v 0.9 0 0.2
v -0.9 0 -0.2
v -0.8 0 -0.2
v 0.8 0 -0.2
v 0.9 0 -0.2
v -0.8 0 -0.5
v -0.7 0 -0.5
v 0.7 0 -0.5
v 0.8 0 -0.5
v -0.7 0 -0.6
v -0.6 0 -0.6
v 0.6 0 -0.6
v 0.7 0 -0.6
v -0.6 0 -0.7
v -0.5 0 -0.7
v 0.5 0 -0.7
v 0.6 0 -0.7
v -0.5 0 -0.8
v -0.2 0 -0.8
v 0.2 0 -0.8
v 0.5 0 -0.8
v -0.2 0 -0.9
v 0.2 0 -0.9
v -0.3 0.1 1
v -0.2 0.1 1
v 0.2 0.1 1
v 0.3 0.1 1
v -0.4 0.1 0.9
v -0.3 0.1 0.9
v 0.3 0.1 0.9
v 0.4 0.1 0.9
v -0.4 0.1 0.8
v -0.2 0.1 0.8
v 0.2 0.1 0.8
v 0.4 0.1 0.8
v -1 0.1 0.1
v -0.9 0.1 0.1
v 0.9 0.1 0.1
v 1 0.1 0.1
v -1 0.1 -0.1
v -0.9 0.1 -0.1
v 0.9 0.1 -0.1
v 1 0.1 -0.1
v -0.1 0.1 -0.9
v 0.1 0.1 -0.9
v -0.1 0.1 -1
v 0.1 0.1 -1
v -0.3 0.3 1
v -0.2 0.3 1
v 0.2 0.3 1
v 0.3 0.3 1
v -0.4 0.3 0.9
v -0.3 0.3 0.9
v 0.3 0.3 0.9
v 0.4 0.3 0.9
v -0.4 0.3 0.8
v -0.2 0.3 0.8
v 0.2 0.3 0.8
v 0.4 0.3 0.8
v -1 0.3 0.1
v -0.9 0.3 0.1
v 0.9 0.3 0.1
v 1 0.3 0.1
v -1 0.3 -0.1
v -0.9 0.3 -0.1
v 0.9 0.3 -0.1
v 1 0.3 -0.1
v -0.1 0.3 -0.9
v 0.1 0.3 -0.9
v -0.1 0.3 -1
v 0.1 0.3 -1
v -0.5 0.4 0.8
v 0.5 0.4 0.8
v -0.6 0.4 0.7
v -0.5 0.4 0.7
v 0.5 0.4 0.7
v 0.6 0.4 0.7
v -0.7 0.4 0.6
v -0.6 0.4 0.6
v -0.2 0.4 0.6
v 0.2 0.4 0.6
v 0.6 0.4 0.6
v 0.7 0.4 0.6
v -0.8 0.4 0.5
v -0.7 0.4 0.5
v -0.4 0.4 0.5
v -0.2 0.4 0.5
v 0.2 0.4 0.5
v 0.4 0.4 0.5
v 0.7 0.4 0.5
v 0.8 0.4 0.5
v -0.5 0.4 0.4
v -0.4 0.4 0.4
v 0.4 0.4 0.4
v 0.5 0.4 0.4
v -0.6 0.4 0.3
v -0.5 0.4 0.3
v 0.5 0.4 0.3
v 0.6 0.4 0.3
v -0.9 0.4 0.2
v -0.8 0.4 0.2
v 0.8 0.4 0.2
v 0.9 0.4 0.2
v -0.6 0.4 0.1
v -0.5 0.4 0.1
v 0.5 0.4 0.1
v 0.6 0.4 0.1
v -0.5 0.4 0
v -0.4 0.4 0
v 0.4 0.4 0
v 0.5 0.4 0
v -0.4 0.4 -0.1
v -0.2 0.4 -0.1
v 0.2 0.4 -0.1
v 0.4 0.4 -0.1
v -0.9 0.4 -0.2
v -0.8 0.4 -0.2
v -0.2 0.4 -0.2
v 0.2 0.4 -0.2
v 0.8 0.4 -0.2
v 0.9 0.4 -0.2
v -0.8 0.4 -0.5
v -0.7 0.4 -0.5
v 0.7 0.4 -0.5
v 0.8 0.4 -0.5
v -0.7 0.4 -0.6
v -0.6 0.4 -0.6
v 0.6 0.4 -0.6
v 0.7 0.4 -0.6
v -0.6 0.4 -0.7
v -0.5 0.4 -0.7
v 0.5 0.4 -0.7
v 0.6 0.4 -0.7
v -0.5 0.4 -0.8
v -0.2 0.4 -0.8
v 0.2 0.4 -0.8
v 0.5 0.4 -0.8
v -0.2 0.4 -0.9
v 0.2 0.4 -0.9
v -0.2 0.5 0.6
v 0.2 0.5 0.6
v -0.4 0.5 0.5
v -0.2 0.5 0.5
v 0.2 0.5 0.5
v 0.4 0.5 0.5
v -0.5 0.5 0.4
v -0.4 0.5 0.4
v 0.4 0.5 0.4
v 0.5 0.5 0.4
v -0.6 0.5 0.3
v -0.5 0.5 0.3
v 0.5 0.5 0.3
v 0.6 0.5 0.3
v -0.6 0.5 0.1
v -0.5 0.5 0.1
v 0.5 0.5 0.1
v 0.6 0.5 0.1
v -0.5 0.5 0
v -0.4 0.5 0
v 0.4 0.5 0
v 0.5 0.5 0
v -0.4 0.5 -0.1
v -0.2 0.5 -0.1
v 0.2 0.5 -0.1
v 0.4 0.5 -0.1
v -0.2 0.5 -0.2
v 0.2 0.5 -0.2

# faces
f 3/3/1 2/3/1 1/3/1
f 4/3/1 2/3/1 3/3/1
f 7/3/1 6/3/1 5/3/1
f 8/3/1 6/3/1 7/3/1
f 9/3/1 7/3/1 5/3/1
f 10/3/1 6/3/1 8/3/1
f 11/3/1 9/3/1 5/3/1
f 11/3/1 10/3/1 9/3/1
f 12/3/1 6/3/1 10/3/1
f 12/3/1 10/3/1 11/3/1
f 17/1/1 14/1/1 13/1/1
f 18/1/1 14/1/1 17/1/1
f 19/1/1 16/1/1 15/1/1
f 20/1/1 16/1/1 19/1/1
f 25/1/1 22/1/1 21/1/1
f 26/1/1 22/1/1 25/1/1
f 27/1/1 24/1/1 23/1/1
f 28/1/1 24/1/1 27/1/1
f 33/1/1 30/1/1 29/1/1
f 34/1/1 30/1/1 33/1/1
f 37/1/1 32/1/1 31/1/1
f 38/1/1 32/1/1 37/1/1
f 39/2/1 36/2/1 35/2/1
f 40/2/1 36/2/1 39/2/1
f 45/1/1 42/1/1 41/1/1
f 46/1/1 42/1/1 45/1/1
f 51/1/1 44/1/1 43/1/1
f 52/1/1 44/1/1 51/1/1
f 53/2/1 48/2/1 47/2/1
f 54/2/1 48/2/1 53/2/1
f 55/2/1 50/2/1 49/2/1
f 56/2/1 50/2/1 55/2/1
f 59/2/1 58/2/1 57/2/1
f 60/2/1 58/2/1 59/2/1
f 65/2/1 62/2/1 61/2/1
f 66/2/1 62/2/1 65/2/1
f 67/2/1 64/2/1 63/2/1
f 68/2/1 64/2/1 67/2/1
f 71/2/1 70/2/1 69/2/1
f 72/2/1 70/2/1 71/2/1
f 79/3/1 74/3/1 73/3/1
f 80/3/1 74/3/1 79/3/1
f 81/2/1 76/2/1 75/2/1
f 82/2/1 76/2/1 81/2/1
f 83/2/1 78/2/1 77/2/1
f 84/2/1 78/2/1 83/2/1
f 87/3/1 86/3/1 85/3/1
f 88/3/1 86/3/1 87/3/1
f 91/2/1 90/2/1 89/2/1
f 92/2/1 90/2/1 91/2/1
f 93/2/2 94/2/2 95/2/2
f 95/2/2 94/2/2 96/2/2
f 97/3/2 98/3/2 99/3/2
f 99/3/2 98/3/2 100/3/2
f 101/3/2 102/3/2 107/3/2
f 107/3/2 102/3/2 108/3/2
f 103/2/2 104/2/2 109/2/2
f 109/2/2 104/2/2 110/2/2
f 105/2/2 106/2/2 111/2/2
f 111/2/2 106/2/2 112/2/2
f 113/2/2 114/2/2 115/2/2
f 115/2/2 114/2/2 116/2/2
f 117/2/2 118/2/2 119/2/2
f 119/2/2 118/2/2 120/2/2
f 121/2/2 122/2/2 125/2/2
f 125/2/2 122/2/2 126/2/2
f 123/2/2 124/2/2 127/2/2
f 127/2/2 124/2/2 128/2/2
f 129/1/2 130/1/2 133/1/2
f 133/1/2 130/1/2 134/1/2
f 131/1/2 132/1/2 139/1/2
f 139/1/2 132/1/2 140/1/2
f 135/2/2 136/2/2 141/2/2
f 141/2/2 136/2/2 142/2/2
f 137/2/2 138/2/2 143/2/2
f 143/2/2 138/2/2 144/2/2
f 145/1/2 146/1/2 149/1/2
f 149/1/2 146/1/2 150/1/2
f 147/1/2 148/1/2 153/1/2
f 153/1/2 148/1/2 154/1/2
f 151/2/2 152/2/2 155/2/2
f 155/2/2 152/2/2 156/2/2
f 157/1/2 158/1/2 161/1/2
f 161/1/2 158/1/2 162/1/2
f 159/1/2 160/1/2 163/1/2
f 163/1/2 160/1/2 164/1/2
f 165/1/2 166/1/2 169/1/2
f 169/1/2 166/1/2 170/1/2
f 167/1/2 168/1/2 171/1/2
f 171/1/2 168/1/2 172/1/2
f 173/3/2 174/3/2 175/3/2
f 175/3/2 174/3/2 176/3/2
f 173/3/2 175/3/2 177/3/2
f 176/3/2 174/3/2 178/3/2
f 173/3/2 177/3/2 179/3/2
f 177/3/2 178/3/2 179/3/2
f 178/3/2 174/3/2 180/3/2
f 179/3/2 178/3/2 180/3/2
f 181/3/2 182/3/2 183/3/2
f 183/3/2 182/3/2 184/3/2
f 187/2/3 186/2/3 185/2/3
f 188/2/3 186/2/3 187/2/3
f 191/2/3 190/2/3 189/2/3
f 192/2/3 190/2/3 191/2/3
f 195/2/3 194/2/3 193/2/3
f 196/2/3 194/2/3 195/2/3
f 199/2/3 198/2/3 197/2/3
f 200/2/3 198/2/3 199/2/3
f 203/1/3 202/1/3 201/1/3
f 204/1/3 202/1/3 203/1/3
f 205/1/3 203/1/3 201/1/3
f 206/1/3 202/1/3 204/1/3
f 207/1/3 205/1/3 201/1/3
f 207/1/3 206/1/3 205/1/3
f 208/1/3 202/1/3 206/1/3
f 208/1/3 206/1/3 207/1/3
f 209/1/3 207/1/3 201/1/3
f 210/1/3 202/1/3 208/1/3
f 211/1/3 209/1/3 201/1/3
f 211/1/3 210/1/3 209/1/3
f 212/1/3 202/1/3 210/1/3
f 212/1/3 210/1/3 211/1/3
f 215/1/3 214/1/3 213/1/3
f 216/1/3 214/1/3 215/1/3
f 219/1/3 218/1/3 217/1/3
f 220/1/3 218/1/3 219/1/3
f 223/1/3 222/1/3 221/1/3
f 224/1/3 222/1/3 223/1/3
f 227/2/3 226/2/3 225/2/3
f 228/2/3 226/2/3 227/2/3
f 231/1/3 230/1/3 229/1/3
f 232/1/3 230/1/3 231/1/3
f 235/1/3 234/1/3 233/1/3
f 236/1/3 234/1/3 235/1/3
f 239/2/3 238/2/3 237/2/3
f 240/2/3 238/2/3 239/2/3
f 243/2/3 242/2/3 241/2/3
f 244/2/3 242/2/3 243/2/3
f 247/1/3 246/1/3 245/1/3
f 248/1/3 246/1/3 247/1/3
f 251/2/3 250/2/3 249/2/3
f 252/2/3 250/2/3 251/2/3
f 255/2/3 254/2/3 253/2/3
f 256/2/3 254/2/3 255/2/3
f 259/2/3 258/2/3 257/2/3
f 260/2/3 258/2/3 259/2/3
f 263/2/3 262/2/3 261/2/3
f 264/2/3 262/2/3 263/2/3
f 267/3/3 266/3/3 265/3/3
f 268/3/3 266/3/3 267/3/3
f 271/3/3 270/3/3 269/3/3
f 272/3/3 270/3/3 271/3/3
f 275/3/3 274/3/3 273/3/3
f 276/3/3 274/3/3 275/3/3
f 279/3/3 278/3/3 277/3/3
f 280/3/3 278/3/3 279/3/3
f 281/2/4 282/2/4 283/2/4
f 283/2/4 282/2/4 284/2/4
f 285/2/4 286/2/4 287/2/4
f 287/2/4 286/2/4 288/2/4
f 289/2/4 290/2/4 291/2/4
f 291/2/4 290/2/4 292/2/4
f 293/2/4 294/2/4 295/2/4
f 295/2/4 294/2/4 296/2/4
f 297/3/4 298/3/4 299/3/4
f 299/3/4 298/3/4 300/3/4
f 301/2/4 302/2/4 303/2/4
f 303/2/4 302/2/4 304/2/4
f 305/2/4 306/2/4 307/2/4
f 307/2/4 306/2/4 308/2/4
f 309/3/4 310/3/4 311/3/4
f 311/3/4 310/3/4 312/3/4
f 313/3/4 314/3/4 315/3/4
f 315/3/4 314/3/4 316/3/4
f 317/2/4 318/2/4 319/2/4
f 319/2/4 318/2/4 320/2/4
f 321/3/4 322/3/4 323/3/4
f 323/3/4 322/3/4 324/3/4
f 325/1/4 326/1/4 327/1/4
f 327/1/4 326/1/4 328/1/4
f 329/1/4 330/1/4 331/1/4
f 331/1/4 330/1/4 332/1/4
f 333/1/4 334/1/4 335/1/4
f 335/1/4 334/1/4 336/1/4
f 337/1/4 338/1/4 339/1/4
f 339/1/4 338/1/4 340/1/4
f 341/1/4 342/1/4 343/1/4
f 343/1/4 342/1/4 344/1/4
f 345/1/4 346/1/4 347/1/4
f 347/1/4 346/1/4 348/1/4
f 349/1/4 350/1/4 351/1/4
f 351/1/4 350/1/4 352/1/4
f 353/1/4 354/1/4 355/1/4
f 355/1/4 354/1/4 356/1/4
f 357/3/4 358/3/4 359/3/4
f 359/3/4 358/3/4 360/3/4
f 357/3/4 359/3/4 361/3/4
f 360/3/4 358/3/4 362/3/4
f 357/3/4 361/3/4 363/3/4
f 361/3/4 362/3/4 363/3/4
f 362/3/4 358/3/4 364/3/4
f 363/3/4 362/3/4 364/3/4
f 365/3/4 366/3/4 367/3/4
f 367/3/4 366/3/4 368/3/4
f 372/1/5 370/1/5 369/1/5
f 373/1/5 370/1/5 372/1/5
f 376/1/5 372/1/5 371/1/5
f 376/1/5 374/1/5 373/1/5
f 376/1/5 373/1/5 372/1/5
f 377/1/5 374/1/5 376/1/5
f 380/1/5 376/1/5 375/1/5
f 380/1/5 378/1/5 377/1/5
f 380/1/5 377/1/5 376/1/5
f 381/1/5 378/1/5 380/1/5
f 384/1/5 380/1/5 379/1/5
f 384/1/5 382/1/5 381/1/5
f 384/1/5 381/1/5 380/1/5
f 385/1/5 382/1/5 384/1/5
f 387/3/5 384/3/5 383/3/5
f 388/1/5 385/1/5 384/1/5
f 388/3/5 384/3/5 387/3/5
f 389/3/5 386/3/5 385/3/5
f 389/1/5 385/1/5 388/1/5
f 390/3/5 386/3/5 389/3/5
f 391/1/5 389/1/5 388/1/5
f 392/1/5 389/1/5 391/1/5
f 393/1/5 389/1/5 392/1/5
f 394/1/5 389/1/5 393/1/5
f 395/1/5 393/1/5 392/1/5
f 396/1/5 393/1/5 395/1/5
f 397/1/5 393/1/5 396/1/5
f 398/1/5 393/1/5 397/1/5
f 399/1/5 397/1/5 396/1/5
f 400/1/5 397/1/5 399/1/5
f 401/1/5 397/1/5 400/1/5
f 402/1/5 397/1/5 401/1/5
f 403/1/5 401/1/5 400/1/5
f 404/1/5 401/1/5 403/1/5
f 405/1/5 401/1/5 404/1/5
f 406/1/5 401/1/5 405/1/5
f 407/3/5 405/3/5 404/3/5
f 408/3/5 405/3/5 407/3/5
f 414/2/5 410/2/5 409/2/5
f 415/2/5 412/2/5 411/2/5
f 417/2/5 414/2/5 413/2/5
f 418/2/5 410/2/5 414/2/5
f 418/2/5 414/2/5 417/2/5
f 419/2/5 416/2/5 415/2/5
f 419/2/5 415/2/5 411/2/5
f 420/2/5 416/2/5 419/2/5
f 425/3/5 422/3/5 421/3/5
f 426/3/5 422/3/5 425/3/5
f 427/3/5 424/3/5 423/3/5
f 428/3/5 424/3/5 427/3/5
f 431/3/5 430/3/5 429/3/5
f 432/3/5 430/3/5 431/3/5
f 433/2/6 434/2/6 438/2/6
f 435/2/6 436/2/6 439/2/6
f 437/2/6 438/2/6 441/2/6
f 438/2/6 434/2/6 442/2/6
f 441/2/6 438/2/6 442/2/6
f 439/2/6 440/2/6 443/2/6
f 435/2/6 439/2/6 443/2/6
f 443/2/6 440/2/6 444/2/6
f 445/3/6 446/3/6 449/3/6
f 449/3/6 446/3/6 450/3/6
f 447/3/6 448/3/6 451/3/6
f 451/3/6 448/3/6 452/3/6
f 453/3/6 454/3/6 455/3/6
f 455/3/6 454/3/6 456/3/6
f 457/1/6 458/1/6 460/1/6
f 460/1/6 458/1/6 461/1/6
f 459/1/6 460/1/6 464/1/6
f 461/1/6 462/1/6 464/1/6
f 460/1/6 461/1/6 464/1/6
f 464/1/6 462/1/6 465/1/6
f 465/1/6 462/1/6 466/1/6
f 466/1/6 462/1/6 467/1/6
f 463/1/6 464/1/6 470/1/6
f 464/1/6 465/1/6 470/1/6
f 470/1/6 465/1/6 471/1/6
f 471/1/6 465/1/6 472/1/6
f 466/1/6 467/1/6 473/1/6
f 467/1/6 468/1/6 473/1/6
f 473/1/6 468/1/6 474/1/6
f 474/1/6 468/1/6 475/1/6
f 470/1/6 471/1/6 477/1/6
f 469/1/6 470/1/6 477/1/6
f 477/1/6 471/1/6 478/1/6
f 475/1/6 476/1/6 479/1/6
f 474/1/6 475/1/6 479/1/6
f 479/1/6 476/1/6 480/1/6
f 469/1/6 477/1/6 481/1/6
f 481/1/6 477/1/6 482/1/6
f 480/1/6 476/1/6 483/1/6
f 483/1/6 476/1/6 484/1/6
f 469/1/6 481/1/6 486/1/6
f 484/1/6 476/1/6 487/1/6
f 486/1/6 481/1/6 489/1/6
f 484/1/6 487/1/6 492/1/6
f 489/1/6 490/1/6 493/1/6
f 491/1/6 492/1/6 496/1/6
f 493/1/6 494/1/6 497/1/6
f 495/1/6 496/1/6 500/1/6
f 485/3/6 486/3/6 501/3/6
f 497/1/6 498/1/6 502/1/6
f 501/3/6 486/3/6 502/3/6
f 486/1/6 489/1/6 502/1/6
f 489/1/6 493/1/6 502/1/6
f 493/1/6 497/1/6 502/1/6
f 502/1/6 498/1/6 503/1/6
f 499/1/6 500/1/6 504/1/6
f 487/3/6 488/3/6 505/3/6
f 500/1/6 496/1/6 505/1/6
f 504/1/6 500/1/6 505/1/6
f 492/1/6 487/1/6 505/1/6
f 496/1/6 492/1/6 505/1/6
f 505/3/6 488/3/6 506/3/6
f 502/1/6 503/1/6 507/1/6
f 503/1/6 504/1/6 507/1/6
f 504/1/6 505/1/6 507/1/6
f 507/1/6 505/1/6 508/1/6
f 508/1/6 505/1/6 509/1/6
f 509/1/6 505/1/6 510/1/6
f 508/1/6 509/1/6 511/1/6
f 511/1/6 509/1/6 512/1/6
f 512/1/6 509/1/6 513/1/6
f 513/1/6 509/1/6 514/1/6
f 512/1/6 513/1/6 515/1/6
f 515/1/6 513/1/6 516/1/6
f 516/1/6 513/1/6 517/1/6
f 517/1/6 513/1/6 518/1/6
f 516/1/6 517/1/6 519/1/6
f 519/1/6 517/1/6 520/1/6
f 520/1/6 517/1/6 521/1/6
f 521/1/6 517/1/6 522/1/6
f 520/3/6 521/3/6 523/3/6
f 523/3/6 521/3/6 524/3/6
f 525/2/6 526/2/6 528/2/6
f 528/2/6 526/2/6 529/2/6
f 527/2/6 528/2/6 532/2/6
f 529/2/6 530/2/6 532/2/6
f 528/2/6 529/2/6 532/2/6
f 532/2/6 530/2/6 533/2/6
f 531/2/6 532/2/6 536/2/6
f 533/2/6 534/2/6 536/2/6
f 532/2/6 533/2/6 536/2/6
f 536/2/6 534/2/6 537/2/6
f 535/2/6 536/2/6 539/2/6
f 537/2/6 538/2/6 539/2/6
f 536/2/6 537/2/6 539/2/6
f 539/2/6 538/2/6 540/2/6
f 540/2/6 538/2/6 541/2/6
f 541/2/6 538/2/6 542/2/6
f 540/2/6 541/2/6 543/2/6
f 543/2/6 541/2/6 544/2/6
f 544/2/6 541/2/6 545/2/6
f 545/2/6 541/2/6 546/2/6
f 544/2/6 545/2/6 547/2/6
f 547/2/6 545/2/6 548/2/6
f 548/2/6 545/2/6 549/2/6
f 549/2/6 545/2/6 550/2/6
f 548/2/6 549/2/6 551/2/6
f 551/2/6 549/2/6 552/2/6
