# MagicaVoxel @ Ephtracy

# group
o 

# material
mtllib RED DRILL.mtl
usemtl palette

# normals
vn -1 0 0
vn 1 0 0
vn 0 0 1
vn 0 0 -1
vn 0 -1 0
vn 0 1 0

# texcoords
vt 0.0371094 0.5
vt 0.0410156 0.5
vt 0.0957031 0.5

# verts
v -0.4 0 -0.1
v -0.4 0 -0.2
v -0.4 0.1 5.96046e-008
v -0.4 0.1 -0.1
v -0.4 0.7 5.96046e-008
v -0.4 0.7 -0.1
v -0.4 0.8 -0.1
v -0.4 0.8 -0.2
v -0.3 0 5.96046e-008
v -0.3 0 -0.1
v -0.3 0.1 0.1
v -0.3 0.1 5.96046e-008
v -0.3 0.1 -0.1
v -0.3 0.2 0.2
v -0.3 0.2 0.1
v -0.3 0.2 5.96046e-008
v -0.3 0.3 -0.2
v -0.3 0.3 -0.3
v -0.3 0.5 -0.2
v -0.3 0.5 -0.3
v -0.3 0.6 0.2
v -0.3 0.6 0.1
v -0.3 0.6 5.96046e-008
v -0.3 0.7 0.1
v -0.3 0.7 5.96046e-008
v -0.3 0.7 -0.1
v -0.3 0.8 5.96046e-008
v -0.3 0.8 -0.1
v -0.2 0.1 0.2
v -0.2 0.1 0.1
v -0.2 0.2 0.3
v -0.2 0.2 0.2
v -0.2 0.2 0.1
v -0.2 0.3 0.4
v -0.2 0.3 0.3
v -0.2 0.5 0.4
v -0.2 0.5 0.3
v -0.2 0.6 0.3
v -0.2 0.6 0.2
v -0.2 0.6 0.1
v -0.2 0.7 0.2
v -0.2 0.7 0.1
v -0.1 0.1 -0.2
v -0.1 0.1 -0.3
v -0.1 0.2 0.4
v -0.1 0.2 0.3
v -0.1 0.3 0.5
v -0.1 0.3 0.4
v -0.1 0.3 0.3
v -0.1 0.3 -0.2
v -0.1 0.3 -0.3
v -0.1 0.4 0.6
v -0.1 0.4 0.5
v -0.1 0.5 0.6
v -0.1 0.5 0.5
v -0.1 0.5 0.4
v -0.1 0.5 0.3
v -0.1 0.5 -0.2
v -0.1 0.5 -0.3
v -0.1 0.6 0.4
v -0.1 0.6 0.3
v -0.1 0.7 -0.2
v -0.1 0.7 -0.3
v 0 0.3 0.6
v 0 0.3 0.5
v 0 0.4 0.6
v 0 0.4 0.5
v 0 0.4 0.6
v 0 0.4 0.5
v 0 0.5 0.6
v 0 0.5 0.5
v 0.1 0.1 -0.2
v 0.1 0.1 -0.3
v 0.1 0.2 0.4
v 0.1 0.2 0.3
v 0.1 0.3 0.6
v 0.1 0.3 0.5
v 0.1 0.3 0.4
v 0.1 0.3 0.3
v 0.1 0.3 -0.2
v 0.1 0.3 -0.3
v 0.1 0.4 0.6
v 0.1 0.4 0.5
v 0.1 0.5 0.5
v 0.1 0.5 0.4
v 0.1 0.5 0.3
v 0.1 0.5 -0.2
v 0.1 0.5 -0.3
v 0.1 0.6 0.4
v 0.1 0.6 0.3
v 0.1 0.7 -0.2
v 0.1 0.7 -0.3
v 0.2 0.1 0.2
v 0.2 0.1 0.1
v 0.2 0.2 0.3
v 0.2 0.2 0.2
v 0.2 0.2 0.1
v 0.2 0.3 0.4
v 0.2 0.3 0.3
v 0.2 0.5 0.4
v 0.2 0.5 0.3
v 0.2 0.6 0.3
v 0.2 0.6 0.2
v 0.2 0.6 0.1
v 0.2 0.7 0.2
v 0.2 0.7 0.1
v 0.3 0 5.96046e-008
v 0.3 0 -0.1
v 0.3 0.1 0.1
v 0.3 0.1 5.96046e-008
v 0.3 0.1 -0.1
v 0.3 0.2 0.2
v 0.3 0.2 0.1
v 0.3 0.2 5.96046e-008
v 0.3 0.3 -0.2
v 0.3 0.3 -0.3
v 0.3 0.5 -0.2
v 0.3 0.5 -0.3
v 0.3 0.6 0.2
v 0.3 0.6 0.1
v 0.3 0.6 5.96046e-008
v 0.3 0.7 0.1
v 0.3 0.7 5.96046e-008
v 0.3 0.7 -0.1
v 0.3 0.8 5.96046e-008
v 0.3 0.8 -0.1
v 0.4 0 -0.1
v 0.4 0 -0.2
v 0.4 0.1 5.96046e-008
v 0.4 0.1 -0.1
v 0.4 0.7 5.96046e-008
v 0.4 0.7 -0.1
v 0.4 0.8 -0.1
v 0.4 0.8 -0.2
v -0.1 0.4 0.6
v -0.1 0.5 0.6
v 0 0.3 0.6
v 0 0.4 0.6
v 0 0.5 0.6
v 0.1 0.3 0.6
v 0.1 0.4 0.6
v -0.1 0.3 0.5
v -0.1 0.4 0.5
v 0 0.3 0.5
v 0 0.4 0.5
v 0 0.5 0.5
v 0.1 0.4 0.5
v 0.1 0.5 0.5
v -0.2 0.3 0.4
v -0.2 0.5 0.4
v -0.1 0.2 0.4
v -0.1 0.3 0.4
v -0.1 0.5 0.4
v -0.1 0.6 0.4
v 0.1 0.2 0.4
v 0.1 0.3 0.4
v 0.1 0.5 0.4
v 0.1 0.6 0.4
v 0.2 0.3 0.4
v 0.2 0.5 0.4
v -0.2 0.2 0.3
v -0.2 0.3 0.3
v -0.2 0.5 0.3
v -0.2 0.6 0.3
v -0.1 0.2 0.3
v -0.1 0.3 0.3
v -0.1 0.5 0.3
v -0.1 0.6 0.3
v 0.1 0.2 0.3
v 0.1 0.3 0.3
v 0.1 0.5 0.3
v 0.1 0.6 0.3
v 0.2 0.2 0.3
v 0.2 0.3 0.3
v 0.2 0.5 0.3
v 0.2 0.6 0.3
v -0.3 0.2 0.2
v -0.3 0.6 0.2
v -0.2 0.1 0.2
v -0.2 0.2 0.2
v -0.2 0.6 0.2
v -0.2 0.7 0.2
v 0.2 0.1 0.2
v 0.2 0.2 0.2
v 0.2 0.6 0.2
v 0.2 0.7 0.2
v 0.3 0.2 0.2
v 0.3 0.6 0.2
v -0.3 0.1 0.1
v -0.3 0.2 0.1
v -0.3 0.6 0.1
v -0.3 0.7 0.1
v -0.2 0.1 0.1
v -0.2 0.2 0.1
v -0.2 0.6 0.1
v -0.2 0.7 0.1
v 0.2 0.1 0.1
v 0.2 0.2 0.1
v 0.2 0.6 0.1
v 0.2 0.7 0.1
v 0.3 0.1 0.1
v 0.3 0.2 0.1
v 0.3 0.6 0.1
v 0.3 0.7 0.1
v -0.4 0.1 5.96046e-008
v -0.4 0.7 5.96046e-008
v -0.3 0 5.96046e-008
v -0.3 0.1 5.96046e-008
v -0.3 0.2 5.96046e-008
v -0.3 0.6 5.96046e-008
v -0.3 0.7 5.96046e-008
v -0.3 0.8 5.96046e-008
v -0.2 0.1 5.96046e-008
v -0.2 0.7 5.96046e-008
v 0.2 0.1 5.96046e-008
v 0.2 0.7 5.96046e-008
v 0.3 0 5.96046e-008
v 0.3 0.1 5.96046e-008
v 0.3 0.2 5.96046e-008
v 0.3 0.6 5.96046e-008
v 0.3 0.7 5.96046e-008
v 0.3 0.8 5.96046e-008
v 0.4 0.1 5.96046e-008
v 0.4 0.7 5.96046e-008
v -0.4 0 -0.1
v -0.4 0.1 -0.1
v -0.4 0.7 -0.1
v -0.4 0.8 -0.1
v -0.3 0 -0.1
v -0.3 0.1 -0.1
v -0.3 0.7 -0.1
v -0.3 0.8 -0.1
v 0.3 0 -0.1
v 0.3 0.1 -0.1
v 0.3 0.7 -0.1
v 0.3 0.8 -0.1
v 0.4 0 -0.1
v 0.4 0.1 -0.1
v 0.4 0.7 -0.1
v 0.4 0.8 -0.1
v -0.4 0 -0.2
v -0.4 0.8 -0.2
v -0.3 0.3 -0.2
v -0.3 0.5 -0.2
v -0.1 0.1 -0.2
v -0.1 0.3 -0.2
v -0.1 0.5 -0.2
v -0.1 0.7 -0.2
v 0.1 0.1 -0.2
v 0.1 0.3 -0.2
v 0.1 0.5 -0.2
v 0.1 0.7 -0.2
v 0.3 0.3 -0.2
v 0.3 0.5 -0.2
v 0.4 0 -0.2
v 0.4 0.8 -0.2
v -0.3 0.3 -0.3
v -0.3 0.5 -0.3
v -0.1 0.1 -0.3
v -0.1 0.3 -0.3
v -0.1 0.5 -0.3
v -0.1 0.7 -0.3
v 0.1 0.1 -0.3
v 0.1 0.3 -0.3
v 0.1 0.5 -0.3
v 0.1 0.7 -0.3
v 0.3 0.3 -0.3
v 0.3 0.5 -0.3
v -0.3 0 5.96046e-008
v 0.3 0 5.96046e-008
v -0.4 0 -0.1
v -0.3 0 -0.1
v 0.3 0 -0.1
v 0.4 0 -0.1
v -0.4 0 -0.2
v 0.4 0 -0.2
v -0.2 0.1 0.2
v 0.2 0.1 0.2
v -0.3 0.1 0.1
v -0.2 0.1 0.1
v 0.2 0.1 0.1
v 0.3 0.1 0.1
v -0.4 0.1 5.96046e-008
v -0.3 0.1 5.96046e-008
v -0.2 0.1 5.96046e-008
v 0.2 0.1 5.96046e-008
v 0.3 0.1 5.96046e-008
v 0.4 0.1 5.96046e-008
v -0.4 0.1 -0.1
v -0.3 0.1 -0.1
v 0.3 0.1 -0.1
v 0.4 0.1 -0.1
v -0.1 0.1 -0.2
v 0.1 0.1 -0.2
v -0.1 0.1 -0.3
v 0.1 0.1 -0.3
v -0.1 0.2 0.4
v 0.1 0.2 0.4
v -0.2 0.2 0.3
v -0.1 0.2 0.3
v 0.1 0.2 0.3
v 0.2 0.2 0.3
v -0.3 0.2 0.2
v -0.2 0.2 0.2
v 0.2 0.2 0.2
v 0.3 0.2 0.2
v -0.3 0.2 0.1
v -0.2 0.2 0.1
v 0.2 0.2 0.1
v 0.3 0.2 0.1
v 0 0.3 0.6
v 0.1 0.3 0.6
v -0.1 0.3 0.5
v 0 0.3 0.5
v 0.1 0.3 0.5
v -0.2 0.3 0.4
v -0.1 0.3 0.4
v 0.1 0.3 0.4
v 0.2 0.3 0.4
v -0.2 0.3 0.3
v -0.1 0.3 0.3
v 0.1 0.3 0.3
v 0.2 0.3 0.3
v -0.3 0.3 -0.2
v -0.1 0.3 -0.2
v 0.1 0.3 -0.2
v 0.3 0.3 -0.2
v -0.3 0.3 -0.3
v -0.1 0.3 -0.3
v 0.1 0.3 -0.3
v 0.3 0.3 -0.3
v -0.1 0.4 0.6
v 0 0.4 0.6
v -0.1 0.4 0.5
v 0 0.4 0.5
v 0 0.4 0.6
v 0.1 0.4 0.6
v 0 0.4 0.5
v 0.1 0.4 0.5
v -0.1 0.5 0.6
v 0 0.5 0.6
v -0.1 0.5 0.5
v 0 0.5 0.5
v 0.1 0.5 0.5
v -0.2 0.5 0.4
v -0.1 0.5 0.4
v 0.1 0.5 0.4
v 0.2 0.5 0.4
v -0.2 0.5 0.3
v -0.1 0.5 0.3
v 0.1 0.5 0.3
v 0.2 0.5 0.3
v -0.3 0.5 -0.2
v -0.1 0.5 -0.2
v 0.1 0.5 -0.2
v 0.3 0.5 -0.2
v -0.3 0.5 -0.3
v -0.1 0.5 -0.3
v 0.1 0.5 -0.3
v 0.3 0.5 -0.3
v -0.1 0.6 0.4
v 0.1 0.6 0.4
v -0.2 0.6 0.3
v -0.1 0.6 0.3
v 0.1 0.6 0.3
v 0.2 0.6 0.3
v -0.3 0.6 0.2
v -0.2 0.6 0.2
v 0.2 0.6 0.2
v 0.3 0.6 0.2
v -0.3 0.6 0.1
v -0.2 0.6 0.1
v 0.2 0.6 0.1
v 0.3 0.6 0.1
v -0.2 0.7 0.2
v 0.2 0.7 0.2
v -0.3 0.7 0.1
v -0.2 0.7 0.1
v 0.2 0.7 0.1
v 0.3 0.7 0.1
v -0.4 0.7 5.96046e-008
v -0.3 0.7 5.96046e-008
v -0.2 0.7 5.96046e-008
v 0.2 0.7 5.96046e-008
v 0.3 0.7 5.96046e-008
v 0.4 0.7 5.96046e-008
v -0.4 0.7 -0.1
v -0.3 0.7 -0.1
v 0.3 0.7 -0.1
v 0.4 0.7 -0.1
v -0.1 0.7 -0.2
v 0.1 0.7 -0.2
v -0.1 0.7 -0.3
v 0.1 0.7 -0.3
v -0.3 0.8 5.96046e-008
v 0.3 0.8 5.96046e-008
v -0.4 0.8 -0.1
v -0.3 0.8 -0.1
v 0.3 0.8 -0.1
v 0.4 0.8 -0.1
v -0.4 0.8 -0.2
v 0.4 0.8 -0.2

# faces
f 4/3/1 2/3/1 1/3/1
f 5/3/1 4/3/1 3/3/1
f 6/3/1 2/3/1 4/3/1
f 6/3/1 4/3/1 5/3/1
f 7/3/1 2/3/1 6/3/1
f 8/3/1 2/3/1 7/3/1
f 12/3/1 10/3/1 9/3/1
f 13/3/1 10/3/1 12/3/1
f 15/2/1 12/2/1 11/2/1
f 16/2/1 12/2/1 15/2/1
f 19/1/1 18/1/1 17/1/1
f 20/1/1 18/1/1 19/1/1
f 21/3/1 16/3/1 15/3/1
f 21/3/1 15/3/1 14/3/1
f 22/3/1 16/3/1 21/3/1
f 23/3/1 16/3/1 22/3/1
f 24/2/1 23/2/1 22/2/1
f 25/2/1 23/2/1 24/2/1
f 27/3/1 26/3/1 25/3/1
f 28/3/1 26/3/1 27/3/1
f 32/3/1 30/3/1 29/3/1
f 33/3/1 30/3/1 32/3/1
f 35/3/1 32/3/1 31/3/1
f 36/3/1 35/3/1 34/3/1
f 37/3/1 32/3/1 35/3/1
f 37/3/1 35/3/1 36/3/1
f 38/3/1 32/3/1 37/3/1
f 39/3/1 32/3/1 38/3/1
f 41/3/1 40/3/1 39/3/1
f 42/3/1 40/3/1 41/3/1
f 48/3/1 46/3/1 45/3/1
f 49/3/1 46/3/1 48/3/1
f 50/1/1 44/1/1 43/1/1
f 51/1/1 44/1/1 50/1/1
f 53/3/1 48/3/1 47/3/1
f 54/2/1 53/2/1 52/2/1
f 55/3/1 48/3/1 53/3/1
f 55/2/1 53/2/1 54/2/1
f 56/3/1 48/3/1 55/3/1
f 60/3/1 57/3/1 56/3/1
f 61/3/1 57/3/1 60/3/1
f 62/1/1 59/1/1 58/1/1
f 63/1/1 59/1/1 62/1/1
f 66/2/1 65/2/1 64/2/1
f 67/2/1 65/2/1 66/2/1
f 68/2/2 69/2/2 70/2/2
f 70/2/2 69/2/2 71/2/2
f 74/3/2 75/3/2 78/3/2
f 78/3/2 75/3/2 79/3/2
f 72/1/2 73/1/2 80/1/2
f 80/1/2 73/1/2 81/1/2
f 76/2/2 77/2/2 82/2/2
f 77/3/2 78/3/2 83/3/2
f 82/2/2 77/2/2 83/2/2
f 83/3/2 78/3/2 84/3/2
f 84/3/2 78/3/2 85/3/2
f 85/3/2 86/3/2 89/3/2
f 89/3/2 86/3/2 90/3/2
f 87/1/2 88/1/2 91/1/2
f 91/1/2 88/1/2 92/1/2
f 93/3/2 94/3/2 96/3/2
f 96/3/2 94/3/2 97/3/2
f 95/3/2 96/3/2 99/3/2
f 98/3/2 99/3/2 100/3/2
f 99/3/2 96/3/2 101/3/2
f 100/3/2 99/3/2 101/3/2
f 101/3/2 96/3/2 102/3/2
f 102/3/2 96/3/2 103/3/2
f 103/3/2 104/3/2 105/3/2
f 105/3/2 104/3/2 106/3/2
f 107/3/2 108/3/2 110/3/2
f 110/3/2 108/3/2 111/3/2
f 109/2/2 110/2/2 113/2/2
f 113/2/2 110/2/2 114/2/2
f 115/1/2 116/1/2 117/1/2
f 117/1/2 116/1/2 118/1/2
f 113/3/2 114/3/2 119/3/2
f 112/3/2 113/3/2 119/3/2
f 119/3/2 114/3/2 120/3/2
f 120/3/2 114/3/2 121/3/2
f 120/2/2 121/2/2 122/2/2
f 122/2/2 121/2/2 123/2/2
f 123/3/2 124/3/2 125/3/2
f 125/3/2 124/3/2 126/3/2
f 127/3/2 128/3/2 130/3/2
f 129/3/2 130/3/2 131/3/2
f 130/3/2 128/3/2 132/3/2
f 131/3/2 130/3/2 132/3/2
f 132/3/2 128/3/2 133/3/2
f 133/3/2 128/3/2 134/3/2
f 138/2/3 136/2/3 135/2/3
f 139/2/3 136/2/3 138/2/3
f 140/2/3 138/2/3 137/2/3
f 141/2/3 138/2/3 140/2/3
f 144/3/3 143/3/3 142/3/3
f 145/3/3 143/3/3 144/3/3
f 147/3/3 146/3/3 145/3/3
f 148/3/3 146/3/3 147/3/3
f 152/3/3 150/3/3 149/3/3
f 153/3/3 150/3/3 152/3/3
f 155/3/3 152/3/3 151/3/3
f 156/3/3 152/3/3 155/3/3
f 157/3/3 154/3/3 153/3/3
f 158/3/3 154/3/3 157/3/3
f 159/3/3 157/3/3 156/3/3
f 160/3/3 157/3/3 159/3/3
f 165/3/3 162/3/3 161/3/3
f 166/3/3 162/3/3 165/3/3
f 167/3/3 164/3/3 163/3/3
f 168/3/3 164/3/3 167/3/3
f 173/3/3 170/3/3 169/3/3
f 174/3/3 170/3/3 173/3/3
f 175/3/3 172/3/3 171/3/3
f 176/3/3 172/3/3 175/3/3
f 180/3/3 178/3/3 177/3/3
f 181/3/3 178/3/3 180/3/3
f 183/3/3 180/3/3 179/3/3
f 184/3/3 180/3/3 183/3/3
f 185/3/3 182/3/3 181/3/3
f 186/3/3 182/3/3 185/3/3
f 187/3/3 185/3/3 184/3/3
f 188/3/3 185/3/3 187/3/3
f 193/2/3 190/2/3 189/2/3
f 194/2/3 190/2/3 193/2/3
f 195/2/3 192/2/3 191/2/3
f 196/2/3 192/2/3 195/2/3
f 201/2/3 198/2/3 197/2/3
f 202/2/3 198/2/3 201/2/3
f 203/2/3 200/2/3 199/2/3
f 204/2/3 200/2/3 203/2/3
f 208/3/3 206/3/3 205/3/3
f 209/3/3 206/3/3 208/3/3
f 210/3/3 206/3/3 209/3/3
f 211/3/3 206/3/3 210/3/3
f 213/3/3 208/3/3 207/3/3
f 214/3/3 212/3/3 211/3/3
f 215/3/3 213/3/3 207/3/3
f 216/3/3 212/3/3 214/3/3
f 217/3/3 215/3/3 207/3/3
f 218/3/3 215/3/3 217/3/3
f 221/3/3 212/3/3 216/3/3
f 222/3/3 212/3/3 221/3/3
f 223/3/3 220/3/3 219/3/3
f 223/3/3 221/3/3 220/3/3
f 223/3/3 219/3/3 218/3/3
f 224/3/3 221/3/3 223/3/3
f 229/3/3 226/3/3 225/3/3
f 230/3/3 226/3/3 229/3/3
f 231/3/3 228/3/3 227/3/3
f 232/3/3 228/3/3 231/3/3
f 237/3/3 234/3/3 233/3/3
f 238/3/3 234/3/3 237/3/3
f 239/3/3 236/3/3 235/3/3
f 240/3/3 236/3/3 239/3/3
f 241/3/4 242/3/4 243/3/4
f 243/3/4 242/3/4 244/3/4
f 241/3/4 243/3/4 245/3/4
f 245/3/4 243/3/4 246/3/4
f 244/3/4 242/3/4 247/3/4
f 247/3/4 242/3/4 248/3/4
f 241/3/4 245/3/4 249/3/4
f 248/3/4 242/3/4 252/3/4
f 249/3/4 250/3/4 253/3/4
f 251/3/4 252/3/4 254/3/4
f 249/3/4 253/3/4 255/3/4
f 253/3/4 254/3/4 255/3/4
f 241/3/4 249/3/4 255/3/4
f 254/3/4 252/3/4 256/3/4
f 255/3/4 254/3/4 256/3/4
f 252/3/4 242/3/4 256/3/4
f 257/1/4 258/1/4 260/1/4
f 260/1/4 258/1/4 261/1/4
f 259/1/4 260/1/4 263/1/4
f 261/1/4 262/1/4 263/1/4
f 260/1/4 261/1/4 263/1/4
f 263/1/4 262/1/4 264/1/4
f 264/1/4 262/1/4 265/1/4
f 265/1/4 262/1/4 266/1/4
f 264/1/4 265/1/4 267/1/4
f 267/1/4 265/1/4 268/1/4
f 272/3/5 270/3/5 269/3/5
f 273/3/5 270/3/5 272/3/5
f 275/3/5 272/3/5 271/3/5
f 275/3/5 274/3/5 273/3/5
f 275/3/5 273/3/5 272/3/5
f 276/3/5 274/3/5 275/3/5
f 280/3/5 278/3/5 277/3/5
f 281/3/5 278/3/5 280/3/5
f 284/2/5 280/2/5 279/2/5
f 285/3/5 281/3/5 280/3/5
f 285/2/5 280/2/5 284/2/5
f 286/2/5 282/2/5 281/2/5
f 286/3/5 281/3/5 285/3/5
f 287/2/5 282/2/5 286/2/5
f 289/3/5 284/3/5 283/3/5
f 290/3/5 284/3/5 289/3/5
f 291/3/5 288/3/5 287/3/5
f 292/3/5 288/3/5 291/3/5
f 295/1/5 294/1/5 293/1/5
f 296/1/5 294/1/5 295/1/5
f 300/3/5 298/3/5 297/3/5
f 301/3/5 298/3/5 300/3/5
f 304/3/5 300/3/5 299/3/5
f 304/3/5 302/3/5 301/3/5
f 304/3/5 301/3/5 300/3/5
f 305/3/5 302/3/5 304/3/5
f 307/3/5 304/3/5 303/3/5
f 308/3/5 304/3/5 307/3/5
f 309/3/5 306/3/5 305/3/5
f 310/3/5 306/3/5 309/3/5
f 314/2/5 312/2/5 311/2/5
f 315/2/5 312/2/5 314/2/5
f 317/3/5 314/3/5 313/3/5
f 317/3/5 315/3/5 314/3/5
f 318/3/5 315/3/5 317/3/5
f 320/3/5 317/3/5 316/3/5
f 321/3/5 317/3/5 320/3/5
f 322/3/5 319/3/5 318/3/5
f 323/3/5 319/3/5 322/3/5
f 328/1/5 325/1/5 324/1/5
f 329/1/5 325/1/5 328/1/5
f 330/1/5 327/1/5 326/1/5
f 331/1/5 327/1/5 330/1/5
f 334/2/5 333/2/5 332/2/5
f 335/2/5 333/2/5 334/2/5
f 336/2/6 337/2/6 338/2/6
f 338/2/6 337/2/6 339/2/6
f 340/2/6 341/2/6 342/2/6
f 342/2/6 341/2/6 343/2/6
f 342/3/6 343/3/6 346/3/6
f 343/3/6 344/3/6 346/3/6
f 346/3/6 344/3/6 347/3/6
f 345/3/6 346/3/6 349/3/6
f 349/3/6 346/3/6 350/3/6
f 347/3/6 348/3/6 351/3/6
f 351/3/6 348/3/6 352/3/6
f 353/1/6 354/1/6 357/1/6
f 357/1/6 354/1/6 358/1/6
f 355/1/6 356/1/6 359/1/6
f 359/1/6 356/1/6 360/1/6
f 361/3/6 362/3/6 364/3/6
f 364/3/6 362/3/6 365/3/6
f 363/3/6 364/3/6 368/3/6
f 365/3/6 366/3/6 368/3/6
f 364/3/6 365/3/6 368/3/6
f 368/3/6 366/3/6 369/3/6
f 367/3/6 368/3/6 371/3/6
f 371/3/6 368/3/6 372/3/6
f 369/3/6 370/3/6 373/3/6
f 373/3/6 370/3/6 374/3/6
f 375/3/6 376/3/6 378/3/6
f 378/3/6 376/3/6 379/3/6
f 377/2/6 378/2/6 382/2/6
f 378/3/6 379/3/6 383/3/6
f 382/2/6 378/2/6 383/2/6
f 379/2/6 380/2/6 384/2/6
f 383/3/6 379/3/6 384/3/6
f 384/2/6 380/2/6 385/2/6
f 381/3/6 382/3/6 387/3/6
f 387/3/6 382/3/6 388/3/6
f 385/3/6 386/3/6 389/3/6
f 389/3/6 386/3/6 390/3/6
f 391/1/6 392/1/6 393/1/6
f 393/1/6 392/1/6 394/1/6
f 395/3/6 396/3/6 398/3/6
f 398/3/6 396/3/6 399/3/6
f 397/3/6 398/3/6 401/3/6
f 399/3/6 400/3/6 401/3/6
f 398/3/6 399/3/6 401/3/6
f 401/3/6 400/3/6 402/3/6
